<svg width="100" height="100" viewBox="0 0 100 100" fill="none" xmlns="http://www.w3.org/2000/svg">
<circle cx="50" cy="50" r="50" fill="url(#paint0_linear_160_303)"/>
<path d="M25.28 43.28L16.64 63.6C16.4533 64.1067 16.16 64.5067 15.76 64.8C15.3867 65.0667 14.9733 65.2 14.52 65.2C13.8 65.2 13.2667 65 12.92 64.6C12.5733 64.2 12.4 63.7067 12.4 63.12C12.4 62.88 12.44 62.6267 12.52 62.36L22.48 38.44C22.6933 37.9067 23.0133 37.4933 23.44 37.2C23.8933 36.9067 24.3733 36.7867 24.88 36.84C25.36 36.84 25.8 36.9867 26.2 37.28C26.6267 37.5467 26.9333 37.9333 27.12 38.44L36.96 61.88C37.0933 62.2267 37.16 62.5467 37.16 62.84C37.16 63.56 36.92 64.1333 36.44 64.56C35.9867 64.9867 35.48 65.2 34.92 65.2C34.44 65.2 34 65.0533 33.6 64.76C33.2267 64.4667 32.9333 64.0667 32.72 63.56L24.12 43.52L25.28 43.28ZM17.88 58.72L20.08 54.12H30.88L31.64 58.72H17.88ZM55.9869 60.32C56.6802 60.32 57.2535 60.5467 57.7069 61C58.1869 61.4267 58.4269 61.9867 58.4269 62.68C58.4269 63.3467 58.1869 63.9067 57.7069 64.36C57.2535 64.7867 56.6802 65 55.9869 65H42.9869C42.2935 65 41.7069 64.7733 41.2269 64.32C40.7735 63.84 40.5469 63.2533 40.5469 62.56V39.44C40.5469 38.7467 40.7869 38.1733 41.2669 37.72C41.7469 37.24 42.3602 37 43.1069 37C43.7469 37 44.3069 37.24 44.7869 37.72C45.2935 38.1733 45.5469 38.7467 45.5469 39.44V61L44.6669 60.32H55.9869ZM72.0078 65.4C70.1411 65.4 68.4611 65.1733 66.9678 64.72C65.4745 64.24 64.0478 63.4133 62.6878 62.24C62.3411 61.9467 62.0745 61.6133 61.8878 61.24C61.7011 60.8667 61.6078 60.4933 61.6078 60.12C61.6078 59.5067 61.8211 58.9733 62.2478 58.52C62.7011 58.04 63.2611 57.8 63.9278 57.8C64.4345 57.8 64.8878 57.96 65.2878 58.28C66.3011 59.1067 67.3011 59.7333 68.2878 60.16C69.3011 60.5867 70.5411 60.8 72.0078 60.8C72.9945 60.8 73.9011 60.6533 74.7278 60.36C75.5545 60.04 76.2211 59.6267 76.7278 59.12C77.2345 58.5867 77.4878 57.9867 77.4878 57.32C77.4878 56.52 77.2478 55.84 76.7678 55.28C76.2878 54.72 75.5545 54.2533 74.5678 53.88C73.5811 53.48 72.3278 53.1733 70.8078 52.96C69.3678 52.7467 68.1011 52.4267 67.0078 52C65.9145 51.5467 64.9945 50.9867 64.2478 50.32C63.5278 49.6267 62.9811 48.8267 62.6078 47.92C62.2345 46.9867 62.0478 45.9467 62.0478 44.8C62.0478 43.0667 62.4878 41.5867 63.3678 40.36C64.2745 39.1333 65.4878 38.2 67.0078 37.56C68.5278 36.92 70.2078 36.6 72.0478 36.6C73.7811 36.6 75.3811 36.8667 76.8478 37.4C78.3411 37.9067 79.5545 38.56 80.4878 39.36C81.2611 39.9733 81.6478 40.68 81.6478 41.48C81.6478 42.0667 81.4211 42.6 80.9678 43.08C80.5145 43.56 79.9811 43.8 79.3678 43.8C78.9678 43.8 78.6078 43.68 78.2878 43.44C77.8611 43.0667 77.2878 42.72 76.5678 42.4C75.8478 42.0533 75.0878 41.7733 74.2878 41.56C73.4878 41.32 72.7411 41.2 72.0478 41.2C70.9011 41.2 69.9278 41.3467 69.1278 41.64C68.3545 41.9333 67.7678 42.3333 67.3678 42.84C66.9678 43.3467 66.7678 43.9333 66.7678 44.6C66.7678 45.4 66.9945 46.0667 67.4478 46.6C67.9278 47.1067 68.6078 47.52 69.4878 47.84C70.3678 48.1333 71.4211 48.4 72.6478 48.64C74.2478 48.9333 75.6478 49.28 76.8478 49.68C78.0745 50.08 79.0878 50.6 79.8878 51.24C80.6878 51.8533 81.2878 52.64 81.6878 53.6C82.0878 54.5333 82.2878 55.68 82.2878 57.04C82.2878 58.7733 81.8078 60.2667 80.8478 61.52C79.8878 62.7733 78.6211 63.7333 77.0478 64.4C75.5011 65.0667 73.8211 65.4 72.0078 65.4Z" fill="black"/>
<defs>
<linearGradient id="paint0_linear_160_303" x1="50" y1="0" x2="50" y2="220" gradientUnits="userSpaceOnUse">
<stop stop-color="#17A2B8"/>
<stop offset="1" stop-color="#D9D9D9" stop-opacity="0"/>
</linearGradient>
</defs>
</svg>
