<svg width="101" height="101" viewBox="0 0 101 101" fill="none" xmlns="http://www.w3.org/2000/svg">
<path d="M46.438 42.1341C46.438 41.9716 46.3072 41.8408 46.1446 41.8408C45.9817 41.8408 45.8464 41.9716 45.8464 42.1341C45.8464 42.2966 45.9817 42.4279 46.1446 42.4279C46.3072 42.4279 46.438 42.2966 46.438 42.1341ZM43.4974 56.8292L32.3529 68.7775C32.9493 69.9161 33.6541 70.9909 34.4536 71.9939L48.6064 56.8292H43.4974ZM36.5405 56.8292L30.406 63.4064C30.7042 64.8203 31.1469 66.18 31.716 67.4675L41.6452 56.8292H36.5405ZM38.0765 75.567L50.1107 62.6699V57.2041L35.3389 73.0373C36.1745 73.9588 37.0916 74.8036 38.0765 75.567ZM50.1107 79.8766V72.1159L43.9352 78.7336C45.8777 79.4115 47.9515 79.8088 50.1107 79.8766ZM58.6757 33.1039L51.466 40.8334V46.3036L63.7848 33.1039H58.6757ZM51.466 33.1039V38.8455L56.8235 33.1039H51.466ZM29.9453 56.8292V59.047C29.9453 59.9553 30.0039 60.8494 30.1167 61.726L34.6883 56.8292H29.9453ZM65.6321 33.1039L51.466 48.2915V53.7617L70.7412 33.1039H65.6321ZM42.5755 78.205L50.1107 70.128V64.6578L39.1878 76.3665C40.2537 77.0805 41.3875 77.6993 42.5755 78.205ZM51.466 56.8292V63.0857C51.4885 63.0994 51.5158 63.113 51.5382 63.1311C51.9853 63.3927 52.3646 63.6817 52.717 63.9486C53.3856 64.4591 53.9503 64.8925 54.8224 65.0824C55.1338 65.1502 55.4818 65.1907 55.8884 65.1907C56.1549 65.1907 56.3896 65.1727 56.6112 65.1458H56.6156C57.6908 64.9965 58.3097 64.5221 59.0642 63.9486C60.0579 63.1897 61.2956 62.2453 63.6042 62.2453C65.9122 62.2453 67.15 63.1897 68.1485 63.9486C68.9299 64.545 69.5669 65.037 70.7187 65.159C71.3107 63.2258 71.6314 61.1749 71.6314 59.047V56.8292H51.466ZM63.7848 55.4739L71.6314 47.0626V41.5923L58.6801 55.4739H63.7848ZM71.6314 55.4739V49.05L65.6369 55.4739H71.6314ZM51.7232 55.4739H56.8235L71.6314 39.6045V34.1338L51.7232 55.4739ZM63.6042 71.0543C62.059 71.0543 61.3406 71.601 60.4327 72.2921C59.439 73.051 58.2013 73.9993 55.8884 73.9993C53.6701 73.9993 52.4417 73.1232 51.466 72.3824V79.8766C57.6454 79.6823 63.1522 76.7915 66.843 72.3418C66.8205 72.3282 66.7976 72.3101 66.7751 72.2921C65.8673 71.601 65.1533 71.0543 63.6042 71.0543ZM41.6901 50.0939C41.4646 50.1433 41.225 50.1886 40.9766 50.2291L41.7624 51.2321L42.0606 51.6114H42.9327L42.2187 50.7441L41.6901 50.0939Z" fill="#17A2B8"/>
<path d="M63.6042 64.5042C62.059 64.5042 61.3406 65.0508 60.4327 65.7419C59.439 66.5008 58.2013 67.4496 55.8884 67.4496C55.4052 67.4496 54.9713 67.4091 54.5736 67.332C54.0274 67.2373 53.553 67.0748 53.1372 66.8849C52.4641 66.5779 51.9356 66.189 51.466 65.8322V69.6361C51.6783 69.7582 51.8814 69.889 52.0668 70.0202C52.2972 70.1823 52.5139 70.3453 52.7174 70.4986C53.6252 71.1901 54.3436 71.7412 55.8884 71.7412C57.438 71.7412 58.1559 71.1901 59.0642 70.4986C60.0579 69.7401 61.2956 68.7957 63.6042 68.7957C65.9122 68.7957 67.15 69.7401 68.1485 70.4986C68.1617 70.5078 68.171 70.5166 68.1846 70.5259C68.8577 69.5141 69.4404 68.4433 69.9236 67.3188C68.4648 67.0338 67.5477 66.3339 66.7751 65.7419C65.8673 65.0508 65.1533 64.5042 63.6042 64.5042ZM29.9453 55.474H50.1107V52.9668H37.6113V51.6115H41.3743L40.5251 50.5729L40.3172 50.3196C39.3952 50.4328 38.3156 50.4821 37.0599 50.4597L34.1871 52.8585H32.2129L33.5634 51.4626L31.4495 52.8585H30.3065L35.4653 49.8408C35.4653 49.8408 35.3706 45.2828 40.2674 43.9005C41.3514 43.5891 42.5169 43.4579 43.6419 43.5979C43.6419 43.5979 42.9146 43.3632 41.88 43.2997C42.4808 42.4959 43.9357 40.856 45.6385 40.7789C47.3731 40.8467 47.748 42.0532 47.748 42.0532C47.748 42.0532 48.01 42.0576 48.3536 42.184C48.6923 42.3016 49.1077 42.5364 49.442 43.0015C49.5504 43.1416 49.6455 43.309 49.731 43.494C49.7085 43.4852 49.4781 43.3856 49.1394 43.327C48.3127 43.1914 46.867 43.2861 46.3433 45.4726C46.2481 45.8294 46.1671 46.2315 46.0314 46.6562C45.9143 47.0491 45.7557 47.4512 45.4985 47.849C45.0782 48.5039 44.4145 49.1272 43.2851 49.606C42.9913 49.728 42.6662 49.8408 42.3046 49.9403L42.6072 50.3288L43.6194 51.6115H50.1107V33.1041H29.9453V55.474ZM38.5434 26.4838V27.1392H39.6269V27.9611H38.5434V28.6165H40.3229V29.438H37.7214V25.6623H40.3229V26.4838H38.5434ZM42.9116 27.2828C43.0913 27.3555 43.241 27.4466 43.3604 27.5576C43.4798 27.6686 43.5679 27.7981 43.6251 27.9457C43.6819 28.0937 43.7022 28.2553 43.6855 28.4298C43.6687 28.5945 43.6097 28.7474 43.5093 28.8887C43.4084 29.0297 43.2736 29.146 43.1058 29.2367C42.9811 29.3037 42.8486 29.3543 42.7076 29.3878C42.5662 29.4213 42.42 29.4385 42.2689 29.4385C42.235 29.4385 42.2024 29.4376 42.1707 29.4358C42.1385 29.434 42.1077 29.4314 42.0773 29.4283C41.8082 29.4045 41.5646 29.3332 41.3461 29.2138C41.1276 29.0944 40.9598 28.9442 40.8422 28.7628L41.5329 28.3091C41.573 28.376 41.6461 28.439 41.7522 28.498C41.8579 28.5566 41.9914 28.5945 42.1531 28.6112C42.257 28.6214 42.3579 28.6183 42.4552 28.6016C42.553 28.5844 42.6385 28.5562 42.7125 28.5157C42.8098 28.465 42.8622 28.4099 42.8688 28.3492C42.8688 28.3289 42.8644 28.3007 42.8561 28.2637C42.8477 28.2267 42.8226 28.1879 42.7807 28.1474C42.7384 28.1073 42.6737 28.0703 42.5865 28.0364C42.4993 28.0029 42.3781 27.9778 42.2235 27.9611C42.0015 27.9408 41.8016 27.8937 41.6236 27.8197C41.4452 27.7462 41.2959 27.6528 41.1748 27.54C41.0536 27.4277 40.9638 27.2982 40.9052 27.152C40.8462 27.0057 40.825 26.8467 40.8422 26.6754C40.8589 26.504 40.9175 26.3485 41.0184 26.2089C41.1193 26.0697 41.2554 25.953 41.4267 25.8587C41.5747 25.7816 41.7368 25.727 41.9134 25.6949C42.0901 25.6631 42.2707 25.6557 42.4552 25.672C42.7208 25.6993 42.9626 25.7715 43.1816 25.8891C43.3996 26.0067 43.5696 26.156 43.6908 26.3375L42.9996 26.7864C42.9596 26.7225 42.8856 26.6621 42.7781 26.6049C42.6706 26.5476 42.5363 26.5106 42.3746 26.4939C42.2707 26.4838 42.1698 26.4873 42.0725 26.504C41.9747 26.5208 41.8892 26.5476 41.8152 26.5846C41.7716 26.6115 41.7359 26.6392 41.7095 26.6679C41.6822 26.6965 41.6672 26.7243 41.6641 26.7511C41.6571 26.815 41.6756 26.8705 41.7192 26.9176C41.7628 26.9648 41.8183 27.0031 41.8857 27.0335C41.9531 27.0634 42.0253 27.0881 42.1024 27.1066C42.1799 27.1251 42.2469 27.1361 42.3041 27.1392V27.1445C42.5292 27.1647 42.7318 27.2105 42.9116 27.2828ZM46.7758 26.504H45.8381V29.438H44.9963V26.504H44.0585V25.6623H46.7758V26.504ZM48.3237 28.6214H48.621C48.6311 28.6214 48.6549 28.6196 48.6915 28.6165C48.7285 28.613 48.7738 28.6055 48.8276 28.5936C48.8817 28.5817 48.9421 28.5659 49.0095 28.5456C49.0764 28.5254 49.1438 28.4967 49.2112 28.4597C49.5504 28.2813 49.72 27.9783 49.72 27.5501C49.72 27.1255 49.5539 26.8242 49.2209 26.6458C49.154 26.6119 49.0874 26.5851 49.0218 26.5648C48.9562 26.5445 48.8967 26.5287 48.843 26.5168C48.7892 26.5049 48.7448 26.4965 48.7091 26.4912C48.6743 26.4864 48.6514 26.4838 48.6412 26.4838H48.3237V28.6214ZM48.6382 29.4433H47.5017V25.6623H48.6633C48.6734 25.6623 48.7064 25.6645 48.7619 25.6698C48.8174 25.6746 48.887 25.6856 48.9716 25.7024C49.0557 25.7195 49.1509 25.7438 49.2566 25.7755C49.3627 25.8076 49.4711 25.8521 49.5825 25.9089C49.8957 26.0706 50.1336 26.2917 50.297 26.5718C50.4604 26.8529 50.5419 27.1779 50.5419 27.5475C50.5419 27.9241 50.4586 28.2527 50.2921 28.5333C50.1252 28.8139 49.8838 29.035 49.5671 29.1962C49.4561 29.2535 49.3478 29.2979 49.2416 29.3297C49.1355 29.3618 49.0403 29.386 48.9562 29.4028C48.8721 29.42 48.8011 29.4305 48.7443 29.4358C48.6871 29.4407 48.6531 29.4433 48.643 29.4433H48.6382ZM50.774 28.5359C50.8982 28.5359 51.0039 28.5795 51.0916 28.6667C51.1788 28.7544 51.2224 28.8601 51.2224 28.9843C51.2224 29.1121 51.1788 29.2195 51.0916 29.3072C51.0039 29.3944 50.8982 29.4385 50.774 29.4385C50.6463 29.4385 50.5384 29.3944 50.4512 29.3072C50.3639 29.2195 50.3199 29.1121 50.3199 28.9843C50.3199 28.8601 50.3639 28.7544 50.4512 28.6667C50.5384 28.5795 50.6463 28.5359 50.774 28.5359ZM55.4475 28.6165V29.4385H52.6694V28.6403L54.4035 27.0498C54.4943 26.9722 54.5506 26.9159 54.5727 26.8806C54.5943 26.8449 54.6053 26.8207 54.6053 26.8071C54.6053 26.7397 54.5802 26.6806 54.5295 26.6304C54.4824 26.5833 54.4145 26.5463 54.3256 26.5194C54.2366 26.4926 54.1397 26.4807 54.0357 26.4838C53.908 26.4873 53.7904 26.504 53.6829 26.5344C53.575 26.5644 53.4878 26.6084 53.4204 26.6652L52.8861 26.038C53.0275 25.9208 53.1944 25.831 53.3878 25.7675C53.5812 25.7037 53.7917 25.6689 54.0208 25.6623C54.2357 25.6587 54.4379 25.6909 54.6282 25.7579C54.818 25.8252 54.9766 25.9226 55.1043 26.0503C55.2118 26.1512 55.2928 26.2662 55.3466 26.3957C55.4003 26.5252 55.4272 26.6639 55.4272 26.8115C55.4272 26.9828 55.3875 27.1326 55.3087 27.2603C55.2294 27.388 55.1378 27.4973 55.0338 27.588L53.9146 28.6165H55.4475ZM57.3754 26.4838C57.2847 26.4838 57.1966 26.5124 57.1124 26.5696C57.0279 26.6269 56.9548 26.7035 56.8922 26.7996C56.8301 26.8956 56.7799 27.0088 56.7429 27.1383C56.7059 27.2678 56.6874 27.4052 56.6874 27.5501C56.6874 27.6951 56.7059 27.8325 56.7429 27.962C56.7799 28.0919 56.8301 28.2056 56.8922 28.3034C56.9548 28.4007 57.0279 28.4782 57.1124 28.5355C57.1966 28.5927 57.2847 28.6214 57.3754 28.6214C57.4701 28.6214 57.5595 28.5927 57.6437 28.5355C57.7278 28.4782 57.8022 28.4007 57.8665 28.3034C57.9304 28.2056 57.9811 28.0919 58.0181 27.962C58.0551 27.8325 58.074 27.6951 58.074 27.5501C58.074 27.4052 58.0551 27.2678 58.0181 27.1383C57.9811 27.0088 57.9304 26.8956 57.8665 26.7996C57.8022 26.7035 57.7278 26.6269 57.6437 26.5696C57.5595 26.5124 57.4701 26.4838 57.3754 26.4838ZM57.3781 29.4433C57.1697 29.4433 56.9737 29.394 56.7909 29.2944C56.6077 29.1953 56.4478 29.0601 56.3117 28.8887C56.1756 28.7174 56.0672 28.5174 55.9866 28.2888C55.906 28.0602 55.8655 27.8149 55.8655 27.5528C55.8655 27.2938 55.906 27.0493 55.9866 26.819C56.0672 26.589 56.1756 26.3882 56.3117 26.2168C56.4478 26.045 56.6077 25.9098 56.7909 25.8107C56.9737 25.7116 57.1697 25.6623 57.3781 25.6623C57.5864 25.6623 57.7833 25.7116 57.9678 25.8107C58.1528 25.9098 58.3141 26.045 58.4519 26.2168C58.5898 26.3882 58.6982 26.589 58.777 26.819C58.8558 27.0493 58.8955 27.2938 58.8955 27.5528C58.8955 27.8149 58.8558 28.0602 58.777 28.2888C58.6982 28.5174 58.5898 28.7174 58.4519 28.8887C58.3141 29.0601 58.1528 29.1953 57.9678 29.2944C57.7833 29.394 57.5864 29.4433 57.3781 29.4433ZM60.7838 26.4838C60.6926 26.4838 60.605 26.5124 60.5204 26.5696C60.4363 26.6269 60.3627 26.7035 60.3002 26.7996C60.2381 26.8956 60.1883 27.0088 60.1513 27.1383C60.1138 27.2678 60.0953 27.4052 60.0953 27.5501C60.0953 27.6951 60.1138 27.8325 60.1513 27.962C60.1883 28.0919 60.2381 28.2056 60.3002 28.3034C60.3627 28.4007 60.4363 28.4782 60.5204 28.5355C60.605 28.5927 60.6926 28.6214 60.7838 28.6214C60.8781 28.6214 60.9675 28.5927 61.0516 28.5355C61.1362 28.4782 61.2102 28.4007 61.2745 28.3034C61.3384 28.2056 61.389 28.0919 61.4265 27.962C61.4635 27.8325 61.482 27.6951 61.482 27.5501C61.482 27.4052 61.4635 27.2678 61.4265 27.1383C61.389 27.0088 61.3384 26.8956 61.2745 26.7996C61.2102 26.7035 61.1362 26.6269 61.0516 26.5696C60.9675 26.5124 60.8781 26.4838 60.7838 26.4838ZM60.786 29.4433C60.5777 29.4433 60.3821 29.394 60.1988 29.2944C60.0156 29.1953 59.8562 29.0601 59.7201 28.8887C59.5839 28.7174 59.4752 28.5174 59.3945 28.2888C59.3139 28.0602 59.2739 27.8149 59.2739 27.5528C59.2739 27.2938 59.3139 27.0493 59.3945 26.819C59.4752 26.589 59.5839 26.3882 59.7201 26.2168C59.8562 26.045 60.0156 25.9098 60.1988 25.8107C60.3821 25.7116 60.5777 25.6623 60.786 25.6623C60.9943 25.6623 61.1912 25.7116 61.3758 25.8107C61.5608 25.9098 61.722 26.045 61.8599 26.2168C61.9977 26.3882 62.1061 26.589 62.1854 26.819C62.2642 27.0493 62.3039 27.2938 62.3039 27.5528C62.3039 27.8149 62.2642 28.0602 62.1854 28.2888C62.1061 28.5174 61.9977 28.7174 61.8599 28.8887C61.722 29.0601 61.5608 29.1953 61.3758 29.2944C61.1912 29.394 60.9943 29.4433 60.786 29.4433ZM65.3136 26.4789L63.6447 29.438H62.6968L64.3605 26.489H62.9439V25.657H65.3136V26.4789Z" fill="#17A2B8"/>
<path d="M50.1152 2.5636C23.8956 2.5636 2.56427 23.8949 2.56427 50.1146C2.56427 76.3342 23.8956 97.6655 50.1152 97.6655C76.3349 97.6655 97.6662 76.3342 97.6662 50.1146C97.6662 23.8949 76.3349 2.5636 50.1152 2.5636ZM50.1152 100.115C43.3658 100.115 36.8178 98.7923 30.6524 96.1847C24.6985 93.6665 19.3512 90.0616 14.7597 85.4697C10.1686 80.8782 6.56334 75.5313 4.04515 69.5769C1.43754 63.412 0.115234 56.864 0.115234 50.1146C0.115234 43.3652 1.43754 36.8171 4.04515 30.6518C6.56334 24.6979 10.1686 19.351 14.7597 14.7595C19.3512 10.1675 24.6985 6.56267 30.6524 4.04447C36.8178 1.43687 43.3658 0.114563 50.1152 0.114563C56.8646 0.114563 63.4127 1.43687 69.5776 4.04447C75.5319 6.56267 80.8793 10.1675 85.4708 14.7595C90.0619 19.351 93.6671 24.6979 96.1853 30.6518C98.7929 36.8171 100.115 43.3652 100.115 50.1146C100.115 56.864 98.7929 63.412 96.1853 69.5769C93.6671 75.5313 90.0619 80.8782 85.4708 85.4697C80.8793 90.0616 75.5319 93.6665 69.5776 96.1847C63.4127 98.7923 56.8646 100.115 50.1152 100.115Z" fill="#17A2B8"/>
<path d="M12.889 60.0138L11.0161 63.0659L10.6597 61.729L12.001 59.5341L11.7032 59.3668L10.1413 59.7826L9.88757 58.8303L10.4439 58.6823L11.8574 58.3057L12.9282 58.0202L14.3064 57.6529L14.3245 57.648L14.3293 57.6661L14.5782 58.6008L13.5964 58.8624L13.111 58.9915L13.4149 59.1575L14.9561 59.9953L15.3155 61.344L12.889 60.0138ZM11.6618 64.826L11.287 63.8746L15.5582 62.1906L15.8705 62.9822L14.2099 65.6968L16.5735 64.7648L16.9484 65.7158L12.6771 67.4001L12.3965 66.6883L14.128 63.8534L11.6618 64.826ZM17.3483 68.6128C17.2616 68.4551 17.151 68.3242 17.0171 68.2203C16.8827 68.1168 16.7352 68.0419 16.5735 67.9952C16.4123 67.9485 16.2454 67.934 16.0727 67.952C15.9 67.9701 15.7349 68.0225 15.5767 68.1093C15.4182 68.1965 15.2873 68.3066 15.1834 68.441C15.079 68.5753 15.0037 68.7229 14.9566 68.8841C14.9099 69.0453 14.894 69.2105 14.9099 69.3792C14.9253 69.5483 14.9764 69.7113 15.0631 69.8694C15.1499 70.0271 15.2614 70.1593 15.3975 70.2667C15.5336 70.3738 15.6825 70.4508 15.8437 70.4975C16.0049 70.5442 16.1701 70.5596 16.3392 70.5433C16.5083 70.5275 16.6722 70.476 16.8303 70.3892C16.9885 70.3024 17.121 70.1905 17.229 70.0544C17.3364 69.9183 17.4135 69.7694 17.4607 69.6082C17.5078 69.447 17.5223 69.2801 17.5047 69.1078C17.4875 68.9352 17.4351 68.7704 17.3483 68.6128ZM14.1888 70.35C14.0373 70.0751 13.9474 69.7862 13.9184 69.4836C13.8893 69.181 13.9157 68.888 13.9981 68.6057C14.0804 68.3234 14.2148 68.0622 14.402 67.8221C14.5892 67.582 14.8204 67.3865 15.0957 67.2349C15.3746 67.0817 15.6666 66.9896 15.9714 66.9592C16.2758 66.9288 16.5696 66.9548 16.8519 67.0367C17.1347 67.1182 17.3959 67.2526 17.636 67.4393C17.876 67.6261 18.0716 67.8569 18.2227 68.1318C18.376 68.4101 18.4676 68.7022 18.4975 69.0061C18.5275 69.3109 18.5015 69.6043 18.4196 69.8866C18.3372 70.1689 18.2015 70.4306 18.0126 70.672C17.824 70.9129 17.5901 71.1102 17.3109 71.2635C17.0356 71.415 16.7466 71.5053 16.4436 71.5349C16.1405 71.5644 15.8481 71.5379 15.5653 71.456C15.2829 71.3741 15.0209 71.2389 14.7799 71.0503C14.539 70.8623 14.3417 70.6288 14.1888 70.35ZM22.1711 74.083L17.7285 75.7779L17.2611 75.1335L18.675 73.465L16.6211 74.2513L16.1613 73.617L19.1591 69.9302L19.7806 70.7874L18.4081 72.4713L20.4387 71.6943L20.9347 72.3784L19.5842 73.9777L21.5496 73.2254L22.1711 74.083ZM19.1389 77.498L22.4922 74.3794L23.1842 75.1234L20.5796 77.546L22.1055 79.1868L21.3571 79.8827L19.1389 77.498ZM25.0372 78.3829L24.5109 78.9798L25.4984 79.8501L24.8386 80.5985L23.8511 79.7286L23.3251 80.3254L24.9465 81.7543L24.2867 82.5031L21.9165 80.4148L24.9483 76.9743L27.3185 79.0626L26.6586 79.8114L25.0372 78.3829ZM26.5128 82.9458L26.808 83.1541C26.8181 83.1612 26.8423 83.1762 26.8815 83.1986C26.9203 83.2211 26.9705 83.2453 27.0322 83.2717C27.0938 83.2977 27.1652 83.3242 27.2458 83.351C27.3268 83.3783 27.4136 83.3968 27.5061 83.4074C27.9677 83.4682 28.3487 83.2863 28.6487 82.8621C28.946 82.441 28.9923 82.0256 28.7874 81.6151C28.7447 81.5345 28.6976 81.4618 28.6469 81.3958C28.5958 81.3297 28.5478 81.272 28.5029 81.2226C28.458 81.1729 28.4197 81.1337 28.3884 81.1037C28.3571 81.0738 28.336 81.0557 28.3263 81.0487L28.0109 80.8258L26.5128 82.9458ZM26.249 83.9813L25.1223 83.1845L27.7722 79.4352L28.924 80.2492C28.9337 80.2562 28.965 80.2818 29.0165 80.3258C29.068 80.3695 29.1293 80.4294 29.2011 80.5051C29.2729 80.5809 29.3499 80.6716 29.4327 80.7773C29.5156 80.8835 29.5918 81.0037 29.6622 81.1385C29.8596 81.5178 29.9411 81.9041 29.9063 82.2965C29.8715 82.6894 29.7243 83.0691 29.4653 83.4356C29.2015 83.8087 28.8883 84.0765 28.5267 84.2377C28.1646 84.3994 27.7704 84.4491 27.3431 84.3875C27.1929 84.3663 27.0542 84.3342 26.9264 84.2914C26.7991 84.2491 26.6877 84.2064 26.5926 84.1641C26.4974 84.1219 26.4195 84.0831 26.3591 84.0479C26.2992 84.0126 26.264 83.9915 26.2538 83.9849L26.249 83.9813ZM30.8863 86.8563C30.6093 86.7079 30.3771 86.5149 30.1895 86.2775C30.0018 86.0406 29.8666 85.7824 29.7838 85.5041C29.7006 85.2252 29.6719 84.9358 29.6979 84.6346C29.7235 84.3333 29.8107 84.0443 29.9596 83.7673C30.108 83.4902 30.3009 83.2581 30.5375 83.07C30.774 82.8824 31.0321 82.7449 31.3109 82.6586C31.5897 82.5718 31.88 82.541 32.1817 82.5665C32.483 82.5916 32.772 82.6784 33.049 82.8269C33.3367 82.9815 33.5794 83.1872 33.7776 83.444C33.9754 83.7008 34.1137 83.9888 34.1921 84.3091L33.2129 84.5407C33.1688 84.3641 33.0913 84.2047 32.9803 84.0615C32.8693 83.9188 32.7332 83.8038 32.5711 83.7171C32.4165 83.6342 32.2549 83.5854 32.0866 83.5713C31.9179 83.5576 31.7554 83.5735 31.599 83.6188C31.4426 83.6646 31.2973 83.7408 31.1638 83.8474C31.0299 83.954 30.922 84.0849 30.8387 84.2395C30.7559 84.3941 30.7075 84.5557 30.6934 84.724C30.6793 84.8927 30.6965 85.0548 30.7449 85.2103C30.7934 85.3662 30.87 85.5102 30.9748 85.6428C31.0797 85.7754 31.2092 85.8833 31.3638 85.9666C31.5977 86.0921 31.8408 86.1414 32.0936 86.115C32.3465 86.0886 32.5698 85.9978 32.7645 85.8428L31.7289 85.2869L32.2064 84.3967L34.2238 85.4794L33.9837 85.9274C33.8348 86.2044 33.6419 86.4365 33.4045 86.6237C33.1671 86.8118 32.9081 86.9471 32.6275 87.0303C32.3465 87.1131 32.0553 87.1422 31.7536 87.1171C31.4523 87.092 31.1629 87.0052 30.8863 86.8563ZM36.0381 85.3464L35.7469 86.0872L36.9719 86.5687L36.6067 87.4972L35.3818 87.0158L35.0906 87.7562L37.1018 88.5473L36.7367 89.4758L33.797 88.32L35.4743 84.0527L38.4145 85.2085L38.0493 86.137L36.0381 85.3464ZM39.8284 89.2543C39.9737 89.2939 40.0839 89.3789 40.1587 89.5089C40.2336 89.6392 40.2512 89.7771 40.2116 89.9229C40.1711 90.0727 40.0856 90.1845 39.9557 90.2594C39.8253 90.3339 39.6874 90.3515 39.5416 90.3123C39.3919 90.2718 39.2795 90.1863 39.2051 90.0559C39.1302 89.926 39.1135 89.7859 39.154 89.6366C39.1932 89.4908 39.2782 89.3802 39.4086 89.3054C39.5385 89.2309 39.6786 89.2137 39.8284 89.2543ZM47.993 87.1713L46.1606 91.5593L45.3717 91.4544L45.1365 89.2798L44.2917 91.3104L43.5147 91.2069L42.9077 86.4938L43.9574 86.6339L44.2322 88.7887L45.0683 86.7819L45.9056 86.8933L46.1347 88.9741L46.9429 87.0316L47.993 87.1713ZM48.3119 91.6949L48.4784 87.1127L49.4941 87.1492L49.3276 91.7319L48.3119 91.6949ZM52.681 89.0622C52.9025 89.1411 53.0884 89.245 53.2386 89.3741C53.3884 89.5027 53.5016 89.656 53.5782 89.8322C53.6544 90.0092 53.6866 90.2039 53.6747 90.4167C53.6624 90.6175 53.598 90.8056 53.4826 90.9818C53.3672 91.158 53.2095 91.3051 53.01 91.4232C52.8625 91.5108 52.7039 91.5782 52.5339 91.6258C52.3643 91.6733 52.1876 91.7007 52.004 91.7081C51.9634 91.7099 51.9238 91.7103 51.8846 91.7099C51.8458 91.7095 51.808 91.7077 51.7714 91.7051C51.4437 91.6896 51.1446 91.6143 50.8742 91.48C50.6033 91.3461 50.3918 91.1712 50.2408 90.9567L51.057 90.3731C51.1089 90.4528 51.201 90.5259 51.3322 90.592C51.4635 90.6585 51.6274 90.6977 51.8238 90.7105C51.9507 90.7175 52.0727 90.7087 52.1903 90.6836C52.3079 90.6585 52.4105 90.6197 52.4982 90.5673C52.614 90.5017 52.6748 90.4316 52.6801 90.3581C52.6788 90.3334 52.6726 90.2991 52.6607 90.2546C52.6484 90.2101 52.6162 90.1643 52.5634 90.1176C52.5101 90.0705 52.4299 90.0291 52.3224 89.9921C52.2145 89.9559 52.0665 89.9308 51.8784 89.9181C51.6084 89.904 51.3631 89.8568 51.1437 89.7753C50.9239 89.6943 50.738 89.5881 50.5856 89.4573C50.4337 89.3265 50.3183 89.1737 50.2399 88.9992C50.1615 88.8248 50.1284 88.6327 50.1403 88.424C50.1527 88.2152 50.2165 88.024 50.3324 87.8496C50.4482 87.6756 50.6077 87.5276 50.8112 87.4051C50.9869 87.3043 51.1812 87.2303 51.3935 87.1827C51.6062 87.136 51.8251 87.118 52.0502 87.1294C52.3735 87.1492 52.6704 87.2254 52.9413 87.358C53.2122 87.4902 53.4249 87.6633 53.5809 87.8778L52.7642 88.4552C52.7123 88.3799 52.6193 88.3099 52.4863 88.2456C52.3528 88.1817 52.1881 88.1434 51.9916 88.1306C51.8648 88.1231 51.7423 88.1324 51.6252 88.1575C51.5076 88.1821 51.4049 88.2191 51.3168 88.2672C51.2653 88.3024 51.2235 88.3376 51.1922 88.3733C51.1609 88.4094 51.1442 88.4438 51.1411 88.4764C51.1362 88.5543 51.1613 88.6209 51.2164 88.6755C51.2719 88.731 51.3411 88.775 51.4239 88.8085C51.5071 88.842 51.5957 88.868 51.6904 88.8869C51.7851 88.9054 51.8674 88.9155 51.937 88.9169V88.923C52.211 88.9367 52.4594 88.9834 52.681 89.0622ZM55.5934 90.4171L55.9506 90.3634C55.963 90.3616 55.9907 90.3554 56.0348 90.3444C56.0784 90.3339 56.1317 90.3167 56.1942 90.2929C56.2563 90.2691 56.3259 90.2387 56.4034 90.2026C56.4805 90.166 56.5558 90.1194 56.6298 90.0625C57.0056 89.7872 57.1544 89.3926 57.0774 88.8785C57.0007 88.3689 56.7466 88.0368 56.3149 87.8826C56.2281 87.854 56.1435 87.8337 56.0612 87.8214C55.9788 87.8091 55.9044 87.8003 55.8374 87.7958C55.7709 87.7914 55.7158 87.7892 55.6727 87.7897C55.6291 87.7897 55.6018 87.791 55.5894 87.7928L55.208 87.85L55.5934 90.4171ZM56.1193 91.347L54.7552 91.5518L54.0729 87.0114L55.4679 86.8017C55.4798 86.7999 55.5198 86.7973 55.5872 86.7933C55.6551 86.7894 55.741 86.7898 55.8449 86.7951C55.9489 86.7999 56.0678 86.8118 56.2008 86.8312C56.3338 86.8506 56.4721 86.8845 56.6162 86.933C57.021 87.0699 57.3469 87.2928 57.5936 87.6003C57.8403 87.9077 57.9971 88.2835 58.0636 88.7275C58.1319 89.1794 58.0909 89.589 57.9411 89.9559C57.7918 90.3233 57.5416 90.6321 57.1906 90.8831C57.0677 90.9717 56.9452 91.0448 56.8236 91.102C56.7021 91.1598 56.592 91.206 56.4942 91.2412C56.3959 91.2769 56.3131 91.3025 56.2453 91.3188C56.1775 91.3355 56.1374 91.3443 56.1255 91.3461L56.1193 91.347ZM60.5056 86.7524C60.3325 86.8013 60.1796 86.8788 60.0484 86.9858C59.9171 87.0933 59.8101 87.2201 59.7281 87.3664C59.6458 87.5131 59.5938 87.6721 59.5722 87.8447C59.5502 88.017 59.5634 88.1896 59.6123 88.3632C59.6612 88.5372 59.7387 88.69 59.8457 88.8222C59.9528 88.9539 60.0796 89.0609 60.2259 89.1433C60.3721 89.2261 60.5294 89.2785 60.6972 89.3018C60.8654 89.3252 61.0359 89.3124 61.2094 89.2639C61.3826 89.2151 61.5367 89.1371 61.6724 89.0287C61.8076 88.9204 61.9164 88.7931 61.9988 88.6468C62.0807 88.5002 62.1331 88.3429 62.1565 88.1742C62.1794 88.006 62.1662 87.8351 62.1177 87.6615C62.0688 87.4875 61.9904 87.3329 61.8825 87.1968C61.7741 87.0611 61.6468 86.9523 61.5006 86.8695C61.3544 86.7872 61.1953 86.7352 61.0236 86.7127C60.8513 86.6907 60.6787 86.7039 60.5056 86.7524ZM61.4786 90.2246C61.1764 90.3092 60.8747 90.3312 60.5734 90.2907C60.2721 90.2502 59.9929 90.1577 59.7369 90.0132C59.4806 89.8692 59.2568 89.6784 59.0657 89.4419C58.8741 89.2049 58.7362 88.9354 58.6516 88.6327C58.5657 88.3262 58.5424 88.0209 58.582 87.7174C58.6221 87.414 58.7137 87.1338 58.8578 86.877C59.0018 86.6207 59.1921 86.3969 59.4282 86.2057C59.6647 86.0141 59.9343 85.8763 60.2364 85.7917C60.5426 85.7058 60.8469 85.6829 61.1504 85.723C61.4535 85.7631 61.7336 85.8551 61.99 85.9996C62.2463 86.1441 62.4701 86.3357 62.6621 86.5744C62.8537 86.8127 62.9925 87.0854 63.0784 87.3924C63.1634 87.6945 63.1854 87.9967 63.1453 88.2984C63.1048 88.6002 63.0127 88.879 62.8687 89.1358C62.7247 89.3921 62.5335 89.6163 62.2952 89.8084C62.0569 90 61.7847 90.1387 61.4786 90.2246ZM64.8583 89.1697L64.6901 89.2428L62.8551 85.0341L63.6127 84.7037L66.1859 86.8678L66.3119 83.5268L67.0695 83.1964L68.9045 87.4051L67.9729 87.8117L67.2316 86.111L67.1536 88.1685L66.4916 88.4574L64.8614 87.0779L65.6274 88.834L64.8583 89.1697ZM70.9193 84.9724C71.0488 84.8949 71.1862 84.8746 71.332 84.9107C71.4773 84.9473 71.5888 85.0306 71.6663 85.16C71.746 85.2935 71.7676 85.4327 71.7311 85.5781C71.6945 85.7239 71.6112 85.8353 71.4817 85.9128C71.3487 85.9925 71.2095 86.0141 71.0642 85.9776C70.9184 85.941 70.8061 85.856 70.7263 85.723C70.6484 85.5935 70.6281 85.456 70.6647 85.3103C70.7012 85.1649 70.7858 85.0521 70.9193 84.9724ZM74.3334 80.7729C74.5602 80.7104 74.7721 80.6892 74.969 80.7082C75.1659 80.7276 75.346 80.7879 75.5103 80.8883C75.6742 80.9896 75.8125 81.1306 75.9248 81.3116C76.0296 81.483 76.0856 81.6741 76.0918 81.8847C76.0984 82.0952 76.0539 82.3062 75.9583 82.5176C75.8874 82.674 75.7966 82.8203 75.6848 82.9564C75.5733 83.0929 75.4443 83.2167 75.298 83.3281C75.2654 83.3528 75.2333 83.3761 75.2011 83.3977C75.169 83.4197 75.1372 83.44 75.1055 83.4594C74.8285 83.6347 74.5408 83.7448 74.2418 83.7902C73.9431 83.8355 73.67 83.814 73.4229 83.7254L73.7559 82.7784C73.8445 82.8141 73.9616 82.8211 74.107 82.8C74.2528 82.7788 74.4096 82.7172 74.5778 82.6145C74.6858 82.5476 74.7809 82.4705 74.8624 82.3824C74.9443 82.2943 75.006 82.2036 75.0478 82.1102C75.1051 81.99 75.1143 81.8979 75.0765 81.8345C75.0615 81.8151 75.0364 81.7909 75.0011 81.7614C74.9659 81.7314 74.913 81.7129 74.843 81.7045C74.7725 81.6966 74.6827 81.7085 74.5739 81.7402C74.4646 81.7724 74.329 81.8371 74.1673 81.9345C73.9383 82.0781 73.7105 82.1798 73.4841 82.2397C73.2573 82.2992 73.0446 82.319 72.8446 82.2992C72.645 82.2793 72.4627 82.2208 72.2984 82.123C72.1341 82.0248 71.9967 81.8869 71.887 81.7089C71.7773 81.531 71.7196 81.3376 71.7143 81.1284C71.709 80.9196 71.7548 80.7064 71.8509 80.4897C71.9368 80.306 72.0535 80.1342 72.2006 79.9735C72.3477 79.8127 72.5164 79.6726 72.7071 79.5528C72.9838 79.3837 73.2705 79.2753 73.5683 79.2282C73.8656 79.1811 74.1396 79.2004 74.3902 79.2868L74.0532 80.2285C73.9673 80.1963 73.8511 80.1924 73.7053 80.2162C73.5595 80.2404 73.4022 80.3034 73.234 80.406C73.126 80.473 73.0309 80.55 72.9494 80.6381C72.8675 80.7262 72.8045 80.8152 72.7604 80.9055C72.738 80.9632 72.7243 81.0161 72.719 81.0636C72.7142 81.1108 72.7199 81.1487 72.7367 81.1773C72.7767 81.2438 72.8358 81.2839 72.9124 81.2971C72.9895 81.3107 73.0714 81.3072 73.1586 81.287C73.2458 81.2667 73.3335 81.2367 73.4216 81.198C73.5101 81.1588 73.5833 81.12 73.6405 81.0813L73.6445 81.0861C73.8766 80.9399 74.1065 80.8355 74.3334 80.7729ZM78.8068 80.3395C78.6769 80.4637 78.5487 80.5633 78.4227 80.6381C78.2968 80.713 78.1756 80.7707 78.0594 80.8117C77.9431 80.8522 77.8334 80.8791 77.7303 80.8923C77.6277 80.9059 77.5361 80.9117 77.455 80.9099C77.2705 80.9055 77.1031 80.8747 76.9529 80.8174C76.8027 80.761 76.6705 80.6976 76.5569 80.6289C76.4428 80.5593 76.3516 80.4919 76.2825 80.425C76.2133 80.3589 76.1702 80.3162 76.1534 80.2985L74.2686 78.3226L75.0042 77.6213L76.8969 79.6061C76.9309 79.6418 76.9692 79.6726 77.0119 79.6999C77.0485 79.7268 77.0912 79.755 77.1396 79.7849C77.1881 79.8149 77.2423 79.8382 77.3026 79.8537C77.3427 79.8664 77.3903 79.8761 77.4449 79.8832C77.4995 79.8902 77.5607 79.8867 77.629 79.8726C77.6973 79.8581 77.7708 79.8303 77.8497 79.7889C77.9285 79.7475 78.0122 79.6845 78.1012 79.5999C78.2928 79.4167 78.3897 79.2286 78.3915 79.0353C78.3932 78.9661 78.3831 78.8996 78.3615 78.8353C78.3399 78.7714 78.3131 78.7124 78.2814 78.6582C78.2496 78.604 78.2184 78.5565 78.1875 78.5151C78.1567 78.4741 78.1329 78.4446 78.1157 78.427L78.1074 78.4177L78.099 78.4093L76.2314 76.451L76.9753 75.7498L78.8346 77.6989C78.8571 77.7226 78.8998 77.772 78.9632 77.8473C79.0262 77.9222 79.0918 78.0178 79.1601 78.1332C79.2279 78.249 79.2874 78.3825 79.3389 78.5336C79.39 78.6851 79.4151 78.8516 79.4134 79.0335C79.4143 79.1172 79.4072 79.2088 79.3918 79.3079C79.3764 79.407 79.3464 79.5132 79.3019 79.6264C79.2574 79.7391 79.1958 79.8563 79.116 79.977C79.0368 80.0977 78.9337 80.2188 78.8068 80.3395ZM82.2606 76.6223C82.0571 76.8672 81.8197 77.0584 81.5488 77.1967C81.2775 77.335 80.9951 77.4174 80.7022 77.4447C80.4088 77.4716 80.1164 77.4425 79.8243 77.3566C79.5323 77.2707 79.2654 77.1271 79.0235 76.9263C78.7786 76.7228 78.5875 76.4853 78.4492 76.2145C78.3109 75.9431 78.2281 75.6608 78.2012 75.3679C78.1739 75.0745 78.2034 74.782 78.2893 74.49C78.3752 74.1984 78.5201 73.9297 78.7236 73.6848C78.9293 73.4368 79.1773 73.2408 79.4667 73.0963C79.7565 72.9523 80.0657 72.8735 80.3947 72.8602L80.4348 73.8566C80.2472 73.8654 80.0723 73.9099 79.9102 73.9901C79.7481 74.0702 79.6085 74.1808 79.4909 74.3222C79.3764 74.4605 79.294 74.6125 79.2442 74.7776C79.1945 74.9432 79.1773 75.1093 79.1927 75.2758C79.2081 75.4427 79.2552 75.6026 79.335 75.7559C79.4143 75.9096 79.523 76.044 79.6614 76.1585C79.7992 76.2735 79.9503 76.355 80.1142 76.4034C80.2785 76.4519 80.4436 76.4686 80.6101 76.4532C80.7771 76.4378 80.937 76.3902 81.0903 76.3109C81.244 76.2316 81.3779 76.1228 81.4928 75.9845C81.61 75.8431 81.6933 75.6854 81.7426 75.5115C81.7915 75.3375 81.8029 75.1573 81.7774 74.9714L82.7685 74.8318C82.816 75.1578 82.7949 75.4758 82.7046 75.7854C82.6143 76.0951 82.4663 76.3743 82.2606 76.6223ZM85.1197 72.6761C84.9466 72.9431 84.7334 73.1611 84.4806 73.3302C84.2273 73.4994 83.9569 73.6148 83.6688 73.676C83.3812 73.7372 83.0869 73.743 82.787 73.6919C82.487 73.6408 82.2051 73.5298 81.9413 73.3589C81.6743 73.1853 81.4558 72.9726 81.2871 72.7193C81.118 72.466 81.0026 72.1956 80.9414 71.9075C80.8797 71.6199 80.8744 71.3256 80.9255 71.0257C80.9766 70.7257 81.0889 70.442 81.262 70.1747C81.4373 69.9042 81.6602 69.6805 81.9307 69.5029C82.2016 69.3259 82.4993 69.2114 82.8248 69.1598L82.9817 70.1443C82.7967 70.1751 82.628 70.2399 82.4764 70.3385C82.3249 70.4372 82.1994 70.5636 82.0994 70.7178C82.0016 70.8684 81.9377 71.0288 81.9078 71.1992C81.8774 71.3692 81.88 71.5362 81.9148 71.7C81.9501 71.8639 82.0157 72.0167 82.1126 72.1603C82.2095 72.303 82.3337 72.4237 82.4839 72.5215C82.635 72.6189 82.7945 72.6823 82.9632 72.7114C83.1314 72.74 83.2975 72.7374 83.4613 72.7021C83.6247 72.6673 83.778 72.6012 83.9212 72.5043C84.0643 72.4074 84.185 72.2837 84.2828 72.133C84.3824 71.9789 84.4467 71.8128 84.4749 71.634C84.5031 71.4556 84.4934 71.275 84.4458 71.0935L85.414 70.838C85.4994 71.1565 85.5157 71.4745 85.4628 71.793C85.4095 72.111 85.295 72.4057 85.1197 72.6761ZM83.7401 67.8838L84.4515 68.2401L85.0418 67.0636L85.9337 67.5107L85.3439 68.6876L86.0553 69.044L87.0239 67.1125L87.9158 67.5596L86.5002 70.3835L82.4011 68.3286L83.8168 65.5043L84.7088 65.9518L83.7401 67.8838ZM86.7684 63.3451C86.9274 63.172 87.0952 63.0408 87.2723 62.9522C87.4494 62.8641 87.6339 62.8192 87.8264 62.817C88.0189 62.8152 88.211 62.861 88.4026 62.9549C88.5827 63.0443 88.7316 63.1764 88.8488 63.3513C88.9664 63.5262 89.0408 63.7283 89.0721 63.9583C89.0959 64.1283 89.0963 64.3005 89.0743 64.4754C89.0523 64.6502 89.0091 64.8238 88.9444 64.9956C88.9303 65.0339 88.9153 65.0709 88.8999 65.1061C88.884 65.1418 88.8682 65.1762 88.8514 65.2092C88.71 65.5048 88.5246 65.7514 88.296 65.9488C88.0669 66.1465 87.8242 66.2734 87.5679 66.3293L87.3463 65.3506C87.4401 65.3334 87.5432 65.2775 87.6551 65.1819C87.767 65.0868 87.867 64.9511 87.955 64.7749C88.011 64.6604 88.0502 64.5445 88.0727 64.4265C88.0951 64.3084 88.0991 64.1988 88.085 64.0974C88.0691 63.9653 88.0282 63.8825 87.9625 63.849C87.9396 63.8402 87.9053 63.8332 87.8595 63.827C87.8141 63.8204 87.7595 63.8327 87.6956 63.8631C87.6317 63.8939 87.5621 63.9517 87.4868 64.0367C87.4111 64.1217 87.3309 64.2485 87.2459 64.4172C87.1283 64.6604 86.9895 64.8678 86.8292 65.0387C86.6693 65.2096 86.4993 65.34 86.3196 65.4294C86.1403 65.5189 85.9544 65.566 85.7632 65.5704C85.5721 65.5748 85.3822 65.5312 85.1946 65.4391C85.007 65.3466 84.8554 65.2136 84.74 65.0392C84.6242 64.8652 84.5497 64.6608 84.5158 64.4256C84.4912 64.2247 84.4982 64.0168 84.537 63.8028C84.5762 63.5883 84.6444 63.3799 84.7427 63.1769C84.8863 62.8866 85.0717 62.6421 85.2985 62.4439C85.5258 62.2457 85.7681 62.1166 86.0262 62.0563L86.2416 63.0328C86.1517 63.0518 86.0513 63.1099 85.9408 63.2077C85.8298 63.3059 85.7302 63.4429 85.6421 63.6191C85.5866 63.7332 85.5474 63.8495 85.5245 63.9675C85.502 64.0851 85.4963 64.1944 85.5069 64.2939C85.5188 64.3551 85.5351 64.4071 85.5562 64.4498C85.5774 64.4926 85.6025 64.5216 85.6315 64.537C85.7011 64.5718 85.7721 64.5745 85.8443 64.545C85.9165 64.5155 85.9839 64.4688 86.0469 64.4049C86.1099 64.3419 86.1685 64.2701 86.2227 64.1899C86.2764 64.1098 86.3178 64.0384 86.346 63.9746L86.3517 63.9768C86.4707 63.7292 86.6094 63.5187 86.7684 63.3451ZM87.933 59.3571C88.0722 59.1672 88.2251 59.0192 88.3916 58.9122C88.5576 58.8051 88.7365 58.7404 88.9276 58.7175C89.1188 58.695 89.3148 58.7197 89.5152 58.7919C89.7042 58.8615 89.8663 58.9765 90.0019 59.1377C90.1376 59.2989 90.2336 59.4918 90.29 59.7169C90.3314 59.8834 90.3508 60.0548 90.3477 60.231C90.3451 60.4072 90.3208 60.5842 90.275 60.7622C90.2649 60.8018 90.2543 60.8401 90.2424 60.8771C90.231 60.9141 90.2186 60.9498 90.2059 60.9846C90.0971 61.2938 89.9398 61.559 89.7337 61.7801C89.5275 62.0012 89.2998 62.1536 89.0509 62.2373L88.725 61.2881C88.8162 61.2608 88.9126 61.1938 89.0135 61.0872C89.1148 60.9802 89.1994 60.8344 89.2677 60.6499C89.3108 60.53 89.3373 60.4107 89.3469 60.2909C89.3562 60.1711 89.3483 60.0614 89.3232 59.9623C89.2932 59.8328 89.2439 59.7548 89.1747 59.7288C89.1509 59.7222 89.1161 59.7187 89.0699 59.7174C89.0241 59.7165 88.9708 59.7345 88.9109 59.7715C88.8505 59.809 88.788 59.8737 88.7219 59.9667C88.6563 60.0596 88.5902 60.194 88.5237 60.371C88.4334 60.6256 88.3176 60.8472 88.177 61.0339C88.0365 61.2216 87.8819 61.3696 87.7128 61.4779C87.5441 61.5863 87.3648 61.6533 87.175 61.6784C86.9851 61.7035 86.7922 61.6806 86.5953 61.6092C86.3989 61.5379 86.2337 61.4216 86.1002 61.2612C85.9663 61.1005 85.8698 60.9053 85.8108 60.675C85.7641 60.4781 85.7487 60.2706 85.7641 60.0535C85.78 59.8363 85.8254 59.6218 85.9007 59.409C86.0126 59.1051 86.1702 58.8421 86.3742 58.6206C86.5786 58.3986 86.8054 58.244 87.0556 58.1563L87.3754 59.1038C87.2882 59.1324 87.1948 59.2011 87.0952 59.3104C86.9957 59.4196 86.9116 59.5667 86.8433 59.7513C86.8001 59.8711 86.7737 59.9905 86.764 60.1103C86.7548 60.2301 86.7605 60.3389 86.7816 60.4371C86.8001 60.4966 86.8221 60.5463 86.8477 60.5864C86.8732 60.627 86.901 60.6529 86.9318 60.6653C87.0049 60.6921 87.0759 60.6873 87.1441 60.6499C87.2128 60.6129 87.275 60.5591 87.3309 60.4891C87.3864 60.419 87.4371 60.3415 87.482 60.2561C87.5269 60.1706 87.5599 60.0949 87.5811 60.0288L87.5873 60.0301C87.6789 59.7715 87.7938 59.5469 87.933 59.3571ZM12.9766 38.2865L13.8778 39.0362L14.1337 38.25L12.9766 38.2865ZM15.8697 40.6673L15.4129 42.0684L10.3016 37.854L10.5782 37.0052L17.1356 36.7823L16.6815 38.176L15.5785 38.2042L15.0028 39.9713L15.8697 40.6673ZM17.6677 35.6692L12.2437 32.8247L12.8749 31.6208L17.088 33.8307L18.4799 31.1768L19.6908 31.8116L17.6677 35.6692ZM21.2038 24.0892C21.4831 23.9442 21.7544 23.857 22.0169 23.828C22.2799 23.7985 22.5327 23.8266 22.7754 23.913C23.0181 23.9993 23.2379 24.1455 23.4352 24.3512C23.6202 24.5464 23.7462 24.7807 23.8136 25.0542C23.8806 25.3278 23.8806 25.6163 23.8145 25.9193C23.7656 26.1435 23.6872 26.3607 23.5788 26.5699C23.4709 26.7791 23.3366 26.9769 23.1767 27.1632C23.141 27.2046 23.1053 27.2443 23.0692 27.2817C23.0335 27.3192 22.9974 27.3548 22.9613 27.3883C22.6472 27.6949 22.3015 27.9191 21.9231 28.0618C21.5447 28.2045 21.1818 28.2516 20.8334 28.2045L21.0065 26.8734C21.132 26.895 21.2871 26.8721 21.4716 26.8038C21.6562 26.7355 21.8443 26.6113 22.0359 26.4303C22.1583 26.3127 22.2609 26.1854 22.3437 26.0471C22.4261 25.9096 22.4816 25.7735 22.5102 25.6401C22.5517 25.4665 22.5384 25.3436 22.471 25.2714C22.4464 25.2498 22.4067 25.2247 22.3521 25.1961C22.2979 25.1674 22.2235 25.1573 22.1292 25.1666C22.035 25.1754 21.9213 25.2159 21.787 25.2877C21.6535 25.3599 21.4941 25.4824 21.3095 25.6546C21.0501 25.9066 20.7801 26.103 20.5004 26.244C20.2207 26.3849 19.9476 26.4704 19.6806 26.4999C19.4137 26.5298 19.1596 26.5034 18.9169 26.421C18.6746 26.3387 18.457 26.1964 18.2636 25.9938C18.0703 25.7916 17.9416 25.5546 17.8765 25.2828C17.8117 25.0111 17.8117 24.7195 17.8773 24.4089C17.939 24.1451 18.0434 23.8874 18.191 23.6364C18.3385 23.3853 18.5209 23.1549 18.7371 22.9448C19.0516 22.6466 19.3965 22.4251 19.7731 22.2806C20.1493 22.1365 20.5131 22.0859 20.8646 22.1291L20.6858 23.4544C20.5642 23.4368 20.4114 23.4637 20.2273 23.5355C20.0432 23.6077 19.8551 23.7337 19.6635 23.9147C19.5406 24.0323 19.4379 24.1601 19.3556 24.2979C19.2732 24.4358 19.2155 24.5697 19.1825 24.6997C19.1693 24.782 19.1662 24.8547 19.1728 24.9181C19.1794 24.9816 19.1974 25.0296 19.2274 25.0622C19.2987 25.1384 19.3864 25.1741 19.4908 25.1701C19.5952 25.1661 19.7013 25.1388 19.8097 25.0882C19.9181 25.0375 20.0247 24.9745 20.1295 24.8988C20.2339 24.823 20.3189 24.7521 20.3832 24.6851L20.3894 24.6904C20.6528 24.4345 20.9241 24.2341 21.2038 24.0892ZM27.6079 22.8426C27.4224 22.995 27.2423 23.1153 27.067 23.2034C26.8916 23.291 26.7247 23.3562 26.5653 23.3989C26.4058 23.4421 26.2569 23.4672 26.1186 23.4751C25.9803 23.4831 25.8574 23.4817 25.7499 23.4716C25.5037 23.4478 25.2835 23.3906 25.0888 23.2998C24.8937 23.2095 24.7236 23.1126 24.5787 23.0096C24.4334 22.906 24.318 22.8069 24.2325 22.7114C24.1466 22.6158 24.0933 22.5554 24.0726 22.5299L21.7504 19.7117L22.7992 18.8475L25.132 21.6784C25.1734 21.7291 25.2214 21.7745 25.276 21.8146C25.3222 21.8542 25.3764 21.896 25.4381 21.9405C25.4997 21.9855 25.5698 22.0216 25.6486 22.0484C25.701 22.0687 25.7632 22.0863 25.8354 22.1013C25.9076 22.1158 25.99 22.1172 26.0825 22.1048C26.1746 22.0925 26.2754 22.0625 26.3847 22.0145C26.4943 21.967 26.6119 21.8912 26.7384 21.7872C27.0123 21.5617 27.1599 21.3199 27.1806 21.0618C27.1894 20.9697 27.1828 20.8799 27.1603 20.7927C27.1374 20.705 27.1075 20.6235 27.0705 20.5482C27.033 20.4729 26.996 20.4064 26.9586 20.3482C26.9216 20.2905 26.8925 20.2491 26.8718 20.2236L26.8613 20.2112L26.8511 20.1985L24.5496 17.4054L25.6103 16.5421L27.9012 19.3228C27.929 19.3563 27.9814 19.4263 28.0585 19.5325C28.1351 19.6391 28.2135 19.7725 28.2932 19.9333C28.3725 20.0945 28.439 20.2782 28.4928 20.4848C28.5465 20.6918 28.5632 20.9164 28.5439 21.1587C28.5373 21.2706 28.5188 21.3917 28.4884 21.5225C28.4584 21.6538 28.4082 21.7925 28.3377 21.9388C28.2677 22.085 28.1734 22.2352 28.0558 22.3885C27.9382 22.5418 27.7889 22.6933 27.6079 22.8426ZM29.5103 15.6726L30.0556 16.6152L31.6149 15.7131L32.2954 16.8896L30.7361 17.7917L31.8963 19.7976L30.7128 20.4821L27.6422 15.1735L31.3845 13.009L32.069 14.1926L29.5103 15.6726ZM35.5672 17.8683L33.1424 12.2356L34.3912 11.6982L36.8155 17.331L35.5672 17.8683ZM39.7456 12.6628L39.6222 13.8288L40.4182 13.6054L39.7456 12.6628ZM39.372 16.391L37.9528 16.7892L38.6197 10.1979L39.4791 9.95699L43.3055 15.2863L41.8946 15.6827L41.2586 14.7811L39.4694 15.2836L39.372 16.391ZM46.7346 11.3815L46.4029 12.5056L47.2261 12.4294L46.7346 11.3815ZM45.6942 14.9802L44.2265 15.1158L46.0725 8.75361L46.9614 8.67124L49.7624 14.6044L48.3031 14.7392L47.8406 13.7376L45.9897 13.9085L45.6942 14.9802ZM52.3458 14.7339L50.9834 14.6146L51.5194 8.49725L52.6532 8.5968L54.9098 12.2052L55.2062 8.82012L56.5686 8.93949L56.0325 15.0572L55.0129 14.9678L52.655 11.2022L52.3458 14.7339ZM64.1157 13.6636C64.3536 13.8693 64.535 14.0891 64.6597 14.3221C64.7848 14.5555 64.8517 14.8009 64.8619 15.0581C64.8715 15.3154 64.8174 15.5739 64.6993 15.8334C64.5866 16.0774 64.4157 16.2813 64.1866 16.4452C63.9571 16.6086 63.6893 16.7161 63.3836 16.7667C63.1568 16.8042 62.9264 16.8116 62.6916 16.7887C62.4573 16.7663 62.2239 16.7147 61.9913 16.635C61.9398 16.6174 61.89 16.5989 61.8415 16.5795C61.7935 16.5601 61.7473 16.5399 61.7023 16.5187C61.3019 16.3408 60.9654 16.1025 60.6928 15.8038C60.4201 15.5052 60.2413 15.1859 60.1563 14.8449L61.4566 14.5124C61.483 14.6366 61.5618 14.7723 61.6935 14.918C61.8252 15.0643 62.0107 15.1929 62.2494 15.3039C62.404 15.3744 62.5608 15.4224 62.7194 15.4479C62.878 15.4735 63.0246 15.4748 63.1594 15.4519C63.3356 15.4259 63.4453 15.3682 63.4876 15.2788C63.4981 15.248 63.5065 15.2017 63.5131 15.1405C63.5197 15.0793 63.5017 15.0066 63.4585 14.9225C63.4149 14.8383 63.3352 14.7476 63.2184 14.6498C63.1022 14.552 62.9295 14.4494 62.7009 14.3419C62.371 14.1943 62.0882 14.0164 61.8539 13.8089C61.6191 13.6015 61.4385 13.379 61.3121 13.1425C61.1857 12.9055 61.1156 12.6593 61.1024 12.4038C61.0892 12.1483 61.1407 11.8933 61.257 11.6387C61.3733 11.3846 61.5455 11.1767 61.7741 11.0154C62.0023 10.8547 62.2732 10.7468 62.5864 10.6926C62.8542 10.6521 63.1321 10.6538 63.4197 10.6974C63.7078 10.7415 63.9893 10.8252 64.2641 10.9485C64.6579 11.13 64.9914 11.3687 65.2649 11.6647C65.5384 11.9603 65.7203 12.2796 65.8106 12.6223L64.513 12.9474C64.4848 12.828 64.4029 12.6959 64.2681 12.5514C64.1329 12.4069 63.9461 12.2792 63.7069 12.1682C63.5523 12.0981 63.3955 12.0501 63.2369 12.0241C63.0784 11.9986 62.9326 11.9951 62.7996 12.0127C62.7181 12.0307 62.6494 12.055 62.593 12.0845C62.5366 12.114 62.4987 12.1488 62.4793 12.1884C62.4353 12.2827 62.4344 12.3778 62.4771 12.473C62.519 12.5686 62.5837 12.6571 62.6714 12.739C62.7586 12.8209 62.8564 12.8967 62.9656 12.9659C63.0749 13.035 63.1722 13.087 63.2581 13.1222L63.2554 13.1302C63.5906 13.2799 63.8774 13.4574 64.1157 13.6636ZM68.0139 19.3699C67.6413 19.1633 67.3307 18.8995 67.0818 18.5771C66.8325 18.2551 66.6537 17.9049 66.5454 17.5265C66.4366 17.1482 66.4022 16.7561 66.4427 16.3514C66.4832 15.9461 66.6053 15.5598 66.8092 15.192C67.0153 14.8194 67.2796 14.5088 67.6016 14.26C67.9236 14.0107 68.2742 13.8323 68.6526 13.7235C69.0309 13.6147 69.4225 13.5808 69.8278 13.6213C70.2326 13.6614 70.6215 13.7847 70.9941 13.9913C71.3712 14.2001 71.6905 14.4771 71.9522 14.8216C72.2134 15.166 72.394 15.5532 72.4931 15.9827L71.1937 16.2831C71.136 16.0386 71.0338 15.8197 70.888 15.6268C70.7422 15.4338 70.562 15.2775 70.3471 15.1585C70.137 15.0423 69.9172 14.9718 69.6873 14.9476C69.4573 14.9229 69.2349 14.9418 69.0199 15.0035C68.8045 15.0652 68.6059 15.1674 68.424 15.3101C68.2421 15.4523 68.0927 15.629 67.9765 15.8391C67.8602 16.0492 67.7901 16.2677 67.7672 16.4954C67.7443 16.7227 67.7633 16.9438 67.8254 17.1592C67.887 17.3746 67.9892 17.5728 68.1319 17.7551C68.2742 17.9371 68.4504 18.0859 68.6605 18.2022C68.8755 18.3216 69.1036 18.3916 69.3446 18.4128C69.5855 18.4339 69.8251 18.4044 70.063 18.3242L70.4929 19.5924C70.0766 19.7355 69.6533 19.7866 69.2239 19.7456C68.7944 19.7042 68.3909 19.5787 68.0139 19.3699ZM79.1839 19.9364L75.2443 24.6468L74.1893 23.7645L75.6966 21.9621L73.9383 20.4914L72.4305 22.2938L71.3752 21.4111L75.3148 16.7006L76.3701 17.5834L74.8153 19.4422L76.5741 20.9129L78.1289 19.0541L79.1839 19.9364ZM81.8791 24.8913C81.7276 24.7045 81.5506 24.5592 81.3493 24.4548C81.148 24.3504 80.9352 24.2869 80.7119 24.264C80.4886 24.2416 80.2652 24.2627 80.0424 24.3275C79.8195 24.3922 79.6147 24.501 79.427 24.653C79.2398 24.8054 79.094 24.982 78.9892 25.1837C78.8844 25.3855 78.8205 25.5978 78.7971 25.8211C78.7738 26.0449 78.7927 26.2655 78.8535 26.484C78.9143 26.7025 79.0209 26.9051 79.1729 27.0919C79.3248 27.2786 79.5032 27.4262 79.708 27.5346C79.9129 27.6429 80.1269 27.709 80.3503 27.7314C80.574 27.7544 80.7951 27.735 81.0136 27.6737C81.2321 27.6121 81.4351 27.5055 81.6228 27.3531C81.81 27.2007 81.958 27.0223 82.0668 26.817C82.176 26.6122 82.2421 26.3981 82.2654 26.1748C82.2883 25.951 82.2681 25.7282 82.2038 25.5053C82.139 25.2828 82.0311 25.078 81.8791 24.8913ZM78.1373 27.9336C77.8726 27.6081 77.6849 27.2496 77.5744 26.8584C77.4634 26.4668 77.4286 26.0757 77.4691 25.6841C77.5096 25.293 77.6242 24.9168 77.8131 24.5561C78.0016 24.1958 78.2589 23.883 78.5853 23.6174C78.9156 23.3487 79.2777 23.158 79.671 23.0452C80.0648 22.9325 80.4573 22.8964 80.8489 22.936C81.2405 22.9761 81.6162 23.0902 81.9769 23.2787C82.3372 23.4668 82.65 23.7236 82.9147 24.0491C83.1829 24.379 83.3732 24.7411 83.4856 25.1344C83.5979 25.5278 83.634 25.9202 83.5935 26.3114C83.5525 26.7029 83.4371 27.0795 83.2464 27.4421C83.0557 27.8046 82.7949 28.1199 82.4645 28.3886C82.1386 28.6538 81.7796 28.8419 81.388 28.9529C80.9964 29.0643 80.6049 29.0996 80.2137 29.0595C79.8221 29.0194 79.4455 28.9044 79.083 28.7141C78.7209 28.5239 78.4056 28.2635 78.1373 27.9336ZM86.4174 31.7966C86.3059 31.583 86.1623 31.405 85.9861 31.2618C85.8099 31.1196 85.6148 31.0143 85.4007 30.9469C85.1862 30.8795 84.9638 30.8548 84.7321 30.8733C84.5008 30.8918 84.278 30.9566 84.0639 31.068C83.8498 31.1795 83.6706 31.3231 83.5274 31.4993C83.3842 31.6755 83.2785 31.8706 83.2107 32.0847C83.1429 32.2987 83.1164 32.519 83.1323 32.7454C83.1477 32.9713 83.2111 33.1916 83.3221 33.4052C83.4331 33.6188 83.5781 33.7994 83.7564 33.947C83.9353 34.0945 84.1317 34.202 84.3458 34.2694C84.5603 34.3368 84.7805 34.3628 85.0074 34.3469C85.2338 34.3306 85.454 34.2672 85.6685 34.1558C85.8826 34.0448 86.0637 33.8994 86.2117 33.7206C86.3601 33.5422 86.468 33.3457 86.5358 33.1317C86.6041 32.9172 86.6288 32.6947 86.6107 32.4639C86.5927 32.2327 86.5284 32.0102 86.4174 31.7966ZM82.1377 34.0205C81.9443 33.6479 81.8329 33.259 81.8034 32.8533C81.7743 32.4476 81.8188 32.0573 81.9377 31.6825C82.0567 31.3072 82.2447 30.9623 82.5024 30.6469C82.7601 30.332 83.0755 30.0774 83.4486 29.8836C83.826 29.6876 84.2194 29.5735 84.6277 29.5427C85.036 29.5118 85.4276 29.5555 85.8029 29.6739C86.1782 29.792 86.5235 29.9796 86.8384 30.2369C87.1534 30.4941 87.408 30.809 87.6013 31.1812C87.7974 31.5583 87.9106 31.9512 87.9414 32.3591C87.9718 32.7674 87.9277 33.159 87.8088 33.5338C87.6903 33.9091 87.5009 34.2544 87.2406 34.5711C86.9807 34.8874 86.6618 35.1437 86.2839 35.3402C85.9108 35.534 85.5214 35.6454 85.1153 35.6754C84.7096 35.7054 84.3189 35.6609 83.9436 35.5424C83.5684 35.4243 83.2226 35.2354 82.9063 34.9755C82.5901 34.716 82.3337 34.3976 82.1377 34.0205ZM83.9864 38.0289L89.8376 36.2203L90.2393 37.5188L85.6945 38.9235L86.5794 41.787L85.273 42.1905L83.9864 38.0289ZM90.5697 49.4614C90.5697 50.2362 89.9416 50.8643 89.1664 50.8643C88.3916 50.8643 87.763 50.2362 87.763 49.4614C87.763 48.6861 88.3916 48.058 89.1664 48.058C89.9416 48.058 90.5697 48.6861 90.5697 49.4614ZM9.66602 49.4614C9.66602 50.2362 10.2941 50.8643 11.0694 50.8643C11.8442 50.8643 12.4727 50.2362 12.4727 49.4614C12.4727 48.6861 11.8442 48.058 11.0694 48.058C10.2941 48.058 9.66602 48.6861 9.66602 49.4614Z" fill="#17A2B8"/>
</svg>
